# Blender 4.3.2
# www.blender.org
mtllib MeleeBounds.mtl
o Circle
v 0.000000 0.000000 -1.000000
v -0.195090 0.000000 -0.980785
v -0.382683 0.000000 -0.923880
v -0.555570 0.000000 -0.831470
v -0.707107 0.000000 -0.707107
v -0.831470 0.000000 -0.555570
v -0.923880 0.000000 -0.382683
v 0.000000 0.000000 0.000000
v 0.923880 0.000000 -0.382683
v 0.831470 0.000000 -0.555570
v 0.707107 0.000000 -0.707107
v 0.555570 0.000000 -0.831470
v 0.382683 0.000000 -0.923880
v 0.195090 0.000000 -0.980785
v 0.000000 1.000000 -1.000000
v -0.195090 1.000000 -0.980785
v -0.382683 1.000000 -0.923880
v -0.555570 1.000000 -0.831470
v -0.707107 1.000000 -0.707107
v -0.831470 1.000000 -0.555570
v -0.923880 1.000000 -0.382683
v 0.000000 1.000000 0.000000
v 0.923880 1.000000 -0.382683
v 0.831470 1.000000 -0.555570
v 0.707107 1.000000 -0.707107
v 0.555570 1.000000 -0.831470
v 0.382683 1.000000 -0.923880
v 0.195090 1.000000 -0.980785
vn -0.0000 -1.0000 -0.0000
vn -0.0000 1.0000 -0.0000
vn 0.8819 -0.0000 -0.4714
vn -0.2903 -0.0000 -0.9569
vn 0.7730 -0.0000 -0.6344
vn -0.4714 -0.0000 -0.8819
vn 0.6344 -0.0000 -0.7730
vn -0.6344 -0.0000 -0.7730
vn 0.4714 -0.0000 -0.8819
vn -0.7730 -0.0000 -0.6344
vn 0.2903 -0.0000 -0.9569
vn -0.8819 -0.0000 -0.4714
vn 0.0980 -0.0000 -0.9952
vn -0.3827 -0.0000 0.9239
vn 0.3827 -0.0000 0.9239
vn -0.0980 -0.0000 -0.9952
vt 0.000000 0.000000
s 0
f 14/1/1 8/1/1 1/1/1
f 1/1/1 8/1/1 2/1/1
f 2/1/1 8/1/1 3/1/1
f 3/1/1 8/1/1 4/1/1
f 4/1/1 8/1/1 5/1/1
f 5/1/1 8/1/1 6/1/1
f 6/1/1 8/1/1 7/1/1
f 8/1/1 10/1/1 9/1/1
f 10/1/1 8/1/1 11/1/1
f 11/1/1 8/1/1 12/1/1
f 12/1/1 8/1/1 13/1/1
f 13/1/1 8/1/1 14/1/1
f 28/1/2 15/1/2 22/1/2
f 15/1/2 16/1/2 22/1/2
f 16/1/2 17/1/2 22/1/2
f 17/1/2 18/1/2 22/1/2
f 18/1/2 19/1/2 22/1/2
f 19/1/2 20/1/2 22/1/2
f 20/1/2 21/1/2 22/1/2
f 22/1/2 23/1/2 24/1/2
f 24/1/2 25/1/2 22/1/2
f 25/1/2 26/1/2 22/1/2
f 26/1/2 27/1/2 22/1/2
f 27/1/2 28/1/2 22/1/2
f 9/1/3 10/1/3 24/1/3 23/1/3
f 2/1/4 3/1/4 17/1/4 16/1/4
f 10/1/5 11/1/5 25/1/5 24/1/5
f 3/1/6 4/1/6 18/1/6 17/1/6
f 11/1/7 12/1/7 26/1/7 25/1/7
f 4/1/8 5/1/8 19/1/8 18/1/8
f 12/1/9 13/1/9 27/1/9 26/1/9
f 5/1/10 6/1/10 20/1/10 19/1/10
f 13/1/11 14/1/11 28/1/11 27/1/11
f 6/1/12 7/1/12 21/1/12 20/1/12
f 14/1/13 1/1/13 15/1/13 28/1/13
f 7/1/14 8/1/14 22/1/14 21/1/14
f 8/1/15 9/1/15 23/1/15 22/1/15
f 1/1/16 2/1/16 16/1/16 15/1/16
